<svg xmlns="http://www.w3.org/2000/svg" viewBox="0 0 500 150" width="500" height="150">
  <defs>
    <!-- Gradient for main aircraft -->
    <linearGradient id="planeGrad" x1="0%" y1="0%" x2="100%" y2="100%">
      <stop offset="0%" style="stop-color:#1a365d;stop-opacity:1" />
      <stop offset="50%" style="stop-color:#2b6cb0;stop-opacity:1" />
      <stop offset="100%" style="stop-color:#4299e1;stop-opacity:1" />
    </linearGradient>
    
    <!-- Text gradient -->
    <linearGradient id="textGrad" x1="0%" y1="0%" x2="100%" y2="0%">
      <stop offset="0%" style="stop-color:#1a365d" />
      <stop offset="100%" style="stop-color:#2b6cb0" />
    </linearGradient>
    
    <!-- Glow effect -->
    <filter id="glowEffect" x="-50%" y="-50%" width="200%" height="200%">
      <feGaussianBlur stdDeviation="2" result="coloredBlur"/>
      <feMerge>
        <feMergeNode in="coloredBlur"/>
        <feMergeNode in="SourceGraphic"/>
      </feMerge>
    </filter>
    
    <!-- Shadow -->
    <filter id="dropShadow" x="-20%" y="-20%" width="140%" height="140%">
      <feDropShadow dx="0" dy="2" stdDeviation="3" flood-color="#1a365d" flood-opacity="0.2"/>
    </filter>
  </defs>
  
  <!-- Logo Icon Container -->
  <g transform="translate(75, 75)">
    <!-- Background circle -->
    <circle cx="0" cy="0" r="55" fill="#f7fafc" filter="url(#dropShadow)"/>
    
    <!-- Orbit ring -->
    <ellipse cx="0" cy="0" rx="45" ry="18" fill="none" stroke="#4299e1" stroke-width="2" stroke-dasharray="6,3" opacity="0.5" transform="rotate(-15)"/>
    
    <!-- Tracking dots -->
    <circle cx="-40" cy="-8" r="4" fill="#38a169" filter="url(#glowEffect)">
      <animate attributeName="opacity" values="1;0.5;1" dur="2s" repeatCount="indefinite"/>
    </circle>
    <circle cx="40" cy="12" r="4" fill="#38a169" filter="url(#glowEffect)">
      <animate attributeName="opacity" values="0.5;1;0.5" dur="2s" repeatCount="indefinite"/>
    </circle>
    
    <!-- Aircraft -->
    <g transform="rotate(-45)">
      <!-- Fuselage -->
      <path d="M-25,0 C-25,-4 -20,-6 -12,-6 L22,-4 C32,-3 38,-2 40,0 C38,2 32,3 22,4 L-12,6 C-20,6 -25,4 -25,0 Z" 
            fill="url(#planeGrad)"/>
      
      <!-- Cockpit -->
      <ellipse cx="30" cy="0" rx="6" ry="2.5" fill="#63b3ed" opacity="0.8"/>
      
      <!-- Wings -->
      <path d="M0,-5 L-12,-28 C-14,-32 -10,-33 -8,-30 L5,-6 Z" fill="url(#planeGrad)"/>
      <path d="M0,5 L-12,28 C-14,32 -10,33 -8,30 L5,6 Z" fill="url(#planeGrad)"/>
      
      <!-- Tail -->
      <path d="M-22,-3 L-30,-15 C-32,-18 -27,-18 -25,-15 L-20,-4 Z" fill="url(#planeGrad)"/>
      <path d="M-22,3 L-30,15 C-32,18 -27,18 -25,15 L-20,4 Z" fill="url(#planeGrad)"/>
      
      <!-- Engine glow -->
      <ellipse cx="-28" cy="0" rx="4" ry="2" fill="#63b3ed" opacity="0.6">
        <animate attributeName="opacity" values="0.4;0.8;0.4" dur="0.5s" repeatCount="indefinite"/>
      </ellipse>
    </g>
    
    <!-- Center AI dot -->
    <circle cx="0" cy="0" r="8" fill="#4299e1" filter="url(#glowEffect)"/>
    <circle cx="0" cy="0" r="4" fill="#ffffff"/>
  </g>
  
  <!-- Text: NDCGenie -->
  <text x="145" y="70" font-family="'Segoe UI', Arial, sans-serif" font-size="48" font-weight="700" fill="url(#textGrad)">
    Aero<tspan fill="#4299e1">Track</tspan>
  </text>
  
  <!-- Text: AI -->
  <text x="145" y="105" font-family="'Segoe UI', Arial, sans-serif" font-size="28" font-weight="600" fill="#718096">
    <tspan fill="#4299e1">AI</tspan>
    <tspan fill="#a0aec0" font-weight="400" font-size="16"> | Transaction Lifecycle Tracker</tspan>
  </text>
  
  <!-- Decorative line -->
  <line x1="145" y1="115" x2="400" y2="115" stroke="#e2e8f0" stroke-width="1"/>
</svg>